<svg width="32" height="32" viewBox="0 0 32 32" fill="none" xmlns="http://www.w3.org/2000/svg">
<g clip-path="url(#clip0_20_25)" filter="url(#filter0_d_20_25)">
<path d="M5 1H9L11.68 14.39C11.7714 14.8504 12.0219 15.264 12.3875 15.5583C12.7532 15.8526 13.2107 16.009 13.68 16H23.4C23.8693 16.009 24.3268 15.8526 24.6925 15.5583C25.0581 15.264 25.3086 14.8504 25.4 14.39L27 6H10M14 21C14 21.5523 13.5523 22 13 22C12.4477 22 12 21.5523 12 21C12 20.4477 12.4477 20 13 20C13.5523 20 14 20.4477 14 21ZM25 21C25 21.5523 24.5523 22 24 22C23.4477 22 23 21.5523 23 21C23 20.4477 23.4477 20 24 20C24.5523 20 25 20.4477 25 21Z" stroke="white" stroke-width="2.5" stroke-linecap="round" stroke-linejoin="round"/>
</g>
<defs>
<filter id="filter0_d_20_25" x="0" y="0" width="32" height="32" filterUnits="userSpaceOnUse" color-interpolation-filters="sRGB">
<feFlood flood-opacity="0" result="BackgroundImageFix"/>
<feColorMatrix in="SourceAlpha" type="matrix" values="0 0 0 0 0 0 0 0 0 0 0 0 0 0 0 0 0 0 127 0" result="hardAlpha"/>
<feOffset dy="4"/>
<feGaussianBlur stdDeviation="2"/>
<feComposite in2="hardAlpha" operator="out"/>
<feColorMatrix type="matrix" values="0 0 0 0 0 0 0 0 0 0 0 0 0 0 0 0 0 0 0.25 0"/>
<feBlend mode="normal" in2="BackgroundImageFix" result="effect1_dropShadow_20_25"/>
<feBlend mode="normal" in="SourceGraphic" in2="effect1_dropShadow_20_25" result="shape"/>
</filter>
<clipPath id="clip0_20_25">
<rect width="24" height="24" fill="white" transform="translate(4)"/>
</clipPath>
</defs>
</svg>
